<?xml version="1.0" encoding="UTF-8"?><svg id="Layer_2" xmlns="http://www.w3.org/2000/svg" viewBox="0 0 258.95 44.62"><g id="Layer_1-2"><path d="M130.32,21.19c-.16-.21-.14-.5.04-.68l7.32-7.19c.33-.32.1-.88-.36-.88h-4.26c-.21,0-.4.08-.55.22l-8.24,7.56c-.33.3-.86.07-.86-.38v-6.58c0-.45-.37-.82-.82-.82h-2.97c-.45,0-.82.37-.82.82v18.27c0,.45.37.82.82.82h2.97c.46,0,.82-.37.82-.83l-.03-4.24c0-.23.09-.45.26-.61l2.56-2.38c.22-.2.56-.18.75.05l6.19,7.69c.16.19.39.31.64.31h4.27c.43,0,.67-.49.4-.83l-8.14-10.33Z" style="fill:#0e0e10; stroke-width:0px;"/><path d="M103.08,12.44h2.98c.45,0,.82.37.82.82v18.27c0,.45-.37.82-.82.82h-2.97c-.45,0-.82-.37-.82-.82V13.26c0-.45.37-.82.82-.82Z" style="fill:#0e0e10; stroke-width:0px;"/><path d="M159.77,12.38c-.39-.05-.95-.12-1.39-.12-2.67,0-4.83.76-6.19,2.16v-1.16c0-.45-.37-.82-.82-.82h-2.83c-.45,0-.82.37-.82.82v18.27c0,.45.37.82.82.82h2.97c.45,0,.82-.37.82-.82v-9.1c0-3.67,1.87-5.69,5.26-5.69.61.01,1.59.05,2.3.07.47.02.85-.35.85-.82v-2.5c0-.56-.42-1.04-.97-1.11Z" style="fill:#0e0e10; stroke-width:0px;"/><path d="M82.08,12.27c-2.68,0-5.09.92-6.74,2.56-.22.22-.56.2-.76-.03-1.41-1.63-3.57-2.53-6.17-2.53-2.39,0-4.43.71-5.83,2.02v-1.02c0-.45-.37-.82-.82-.82h-2.83c-.45,0-.82.37-.82.82v18.27c0,.45.37.82.82.82h2.97c.45,0,.82-.37.82-.82v-9.41c0-3.55,1.82-5.59,4.99-5.59,2.79,0,4.21,1.63,4.21,4.85v10.15c0,.45.37.82.82.82h2.97c.45,0,.82-.37.82-.82v-9.41c0-3.55,1.82-5.59,4.99-5.59,2.8,0,4.21,1.63,4.21,4.85v10.15c0,.45.37.82.82.82h2.97c.45,0,.82-.37.82-.82v-10.54c0-5.54-3.01-8.72-8.26-8.72Z" style="fill:#0e0e10; stroke-width:0px;"/><path d="M223.46,12.44h2.97c.45,0,.82.37.82.82v18.27c0,.45-.37.82-.82.82h-2.97c-.45,0-.82-.37-.82-.82V13.26c0-.45.37-.82.82-.82Z" style="fill:#0e0e10; stroke-width:0px;"/><path d="M258.84,31.52l-8.14-10.33c-.16-.21-.14-.5.04-.68l7.32-7.19c.33-.32.1-.88-.36-.88h-4.26c-.21,0-.4.08-.55.22l-8.24,7.56c-.33.3-.86.07-.86-.38v-6.58c0-.45-.37-.82-.82-.82h-2.97c-.45,0-.82.37-.82.82v18.27c0,.45.37.82.82.82h2.97c.46,0,.82-.37.82-.83l-.03-4.24c0-.23.09-.45.26-.61l2.56-2.38c.22-.2.56-.18.75.06l6.19,7.69c.16.19.39.31.64.31h4.27c.43,0,.67-.49.4-.83Z" style="fill:#0e0e10; stroke-width:0px;"/><path d="M177.29,12.27c-5.99,0-10.34,4.26-10.34,10.13s4.35,10.17,10.34,10.17,10.31-4.28,10.31-10.17-4.33-10.13-10.31-10.13ZM177.29,28.37c-3.35,0-5.69-2.46-5.69-5.97s2.34-5.94,5.69-5.94,5.66,2.39,5.66,5.94-2.33,5.97-5.66,5.97Z" style="fill:#0e0e10; stroke-width:0px;"/><path d="M212.57,12.44h-17.95c-.45,0-.82.37-.82.82v2.66c0,.45.37.82.82.82h6.1c.28,0,.51.23.51.51v14.28c0,.45.37.82.82.82h3.08c.45,0,.82-.37.82-.82v-14.28c0-.28.23-.51.51-.51h6.1c.45,0,.82-.37.82-.82v-2.66c0-.45-.37-.82-.82-.82Z" style="fill:#0e0e10; stroke-width:0px;"/><path d="M11.71,21.59c-.09-.1-.19-.19-.31-.26l-2.95-1.63c-.11-.06-.22-.07-.32-.05-.27-.02-.53.18-.53.48v7.99c0,.72.39,1.39,1.03,1.74l2.7,1.48c.33.18.73-.06.73-.43v-8.58c0-.29-.13-.55-.34-.74Z" style="fill:#0e0e10; stroke-width:0px;"/><path d="M33.21,14.78l-10.19-5.58-1.31-.72c-.52-.29-1.16-.29-1.69,0l-2.9,1.6c-.1.05-.16.13-.21.22-.17.23-.12.57.15.72l8.62,4.72c.3.22.29.68-.05.87l-3.81,2.11c-.52.29-1.16.29-1.69,0l-8.48-4.69c-.52-.29-1.16-.29-1.69,0l-1.4.77c-.28.16-.51.39-.66.65-.2.31-.32.68-.32,1.06v.52l6.44,3.53,3.73,2.06s.06.05.09.07c.09.06.17.12.25.19.24.23.4.52.5.83.04.14.06.29.06.44v10.66c0,.26.12.49.31.66.07.08.15.14.24.2l.76.42c.59.33,1.31.33,1.91,0l.76-.42c.17-.09.31-.24.39-.41.1-.14.15-.31.15-.49v-10.55c0-.63.34-1.22.9-1.53l4.95-2.73c.32-.18.7.03.75.38v10.57c0,.38.4.62.73.43l2.7-1.48c.64-.35,1.03-1.02,1.03-1.74v-11.61c0-.72-.4-1.39-1.03-1.74Z" style="fill:#0e0e10; stroke-width:0px;"/><path d="M39.33,9.57L23.3.62c-1.48-.83-3.28-.83-4.76,0L2.5,9.57c-1.54.86-2.5,2.49-2.5,4.26v17.08c0,1.78.97,3.42,2.53,4.28l16.04,8.82c1.46.81,3.24.81,4.7,0l16.04-8.82c1.56-.86,2.53-2.5,2.53-4.28V13.83c0-1.77-.96-3.4-2.5-4.26ZM36.95,32.33l-15.01,8.26c-.64.35-1.41.35-2.05,0l-15.01-8.26c-.68-.37-1.1-1.09-1.1-1.86V14.27c0-.77.42-1.48,1.09-1.86l15.01-8.38c.64-.36,1.43-.36,2.07,0l15.01,8.38c.67.38,1.09,1.09,1.09,1.86v16.2c0,.78-.42,1.49-1.1,1.86Z" style="fill:#0e0e10; stroke-width:0px;"/></g></svg>